<?xml version="1.0" encoding="utf-8"?>
<!-- Generator: Adobe Illustrator 22.1.0, SVG Export Plug-In . SVG Version: 6.00 Build 0)  -->
<svg version="1.1" xmlns="http://www.w3.org/2000/svg" xmlns:xlink="http://www.w3.org/1999/xlink" x="0px" y="0px"
	 viewBox="0 0 708.7 453.5" style="enable-background:new 0 0 708.7 453.5;" xml:space="preserve">
<style type="text/css">
	.st0{fill:#61995E;}
	.st1{fill:#E19B4E;stroke:#FFFFFF;stroke-width:9.4;}
	.st2{fill:#FFFFFF;}
	.st3{fill:none;stroke:#231F20;}
	.st4{font-family:'MyriadPro-Regular';}
	.st5{font-size:23.748px;}
</style>
<g id="Calque_1" text-rendering="geometricPrecision" shape-rendering="geometricPrecision" image-rendering="optimizeQuality" xmlns:cc="http://creativecommons.org/ns#" xmlns:dc="http://purl.org/dc/elements/1.1/" xmlns:rdf="http://www.w3.org/1999/02/22-rdf-syntax-ns#" xmlns:svg="http://www.w3.org/2000/svg">
	<path class="st0" d="M708.7,0v453.5H0V0"/>
	<path class="st1" d="M608,100.3v251.2H100.7V100.3H608z"/>
	<path class="st2" d="M439.3,59.3v4.2h-2.7v-4.2 M439.3,69.3v4.2h-2.7v-4.2 M439.3,49.4v4.2h-2.7v-4.2 M439.3,79.2v4.2h-2.7v-4.2
		 M439.3,88.8v4.2h-2.7v-4.2 M439.3,392.4v-4.2h-2.7v4.2 M439.3,382.5v-4.2h-2.7v4.2 M439.3,402.3v-4.2h-2.7v4.2 M439.3,372.8v-4.5
		h-2.7v4.5 M439.3,362.9v-4.2h-2.7v4.2 M619.5,350.2h-4.2v2.7h4.2 M619.5,98.8h-4.2v3h4.2 M89.5,98.8h4.2v3h-4.2 M89.5,350.2h4.2
		v2.7h-4.2 M272.1,59.3v4.2h-2.7v-4.2 M272.1,69.3v4.2h-2.7v-4.2 M272.1,49.4v4.2h-2.7v-4.2 M272.1,79.2v4.2h-2.7v-4.2 M272.1,88.8
		v4.2h-2.7v-4.2 M272.1,392.4v-4.2h-2.7v4.2 M272.1,382.5v-4.2h-2.7v4.2 M272.1,402.3v-4.2h-2.7v4.2 M272.1,372.8v-4.5h-2.7v4.5
		 M272.1,362.9v-4.2h-2.7v4.2 M355.8,100.3v251.2h-3V100.3 M272.1,100.3v251.2h-2.7V100.3 M439.3,100.3v251.2h-2.7V100.3
		 M253.7,402.3h-4.2v2.7h4.2 M243.7,402.3h-4.2v2.7h4.2 M263.6,402.3h-4.2v2.7h4.2 M233.7,402.3h-4.2v2.7h4.2 M223.4,402.3h-4.2v2.7
		h4.2 M213.4,402.3h-4.2v2.7h4.2 M203.5,402.3h-4.2v2.7h4.2 M193.5,402.3h-4.2v2.7h4.2 M183.5,402.3h-4.2v2.7h4.2 M173.5,402.3h-4.2
		v2.7h4.2 M163.6,402.3h-4.2v2.7h4.2 M153.6,402.3h-4.2v2.7h4.2 M143.6,402.3h-4.2v2.7h4.2 M133.6,402.3h-4.2v2.7h4.2 M123.7,402.3
		h-4.2v2.7h4.2 M113.7,402.3h-4.5v2.7h4.5 M103.4,402.3h-4.2v2.7h4.2 M599.5,402.3h-4.2v2.7h4.2 M589.5,402.3h-4.2v2.7h4.2
		 M609.5,402.3h-4.2v2.7h4.2 M579.6,402.3h-4.2v2.7h4.2 M569.6,402.3h-4.5v2.7h4.5 M559.3,402.3h-4.2v2.7h4.2 M549.3,402.3h-4.2v2.7
		h4.2 M539.4,402.3h-4.2v2.7h4.2 M529.4,402.3h-4.2v2.7h4.2 M519.4,402.3h-4.2v2.7h4.2 M509.4,402.3h-4.2v2.7h4.2 M499.4,402.3h-4.2
		v2.7h4.2 M489.5,402.3h-4.2v2.7h4.2 M479.5,402.3h-4.2v2.7h4.2 M469.5,402.3h-4.2v2.7h4.2 M459.5,402.3H455v2.7h4.5 M449.3,402.3
		H445v2.7h4.2"/>
	<rect x="354.3" y="0" class="st3" width="354.3" height="100.3"/>
	<rect x="608" y="100.3" class="st3" width="100.7" height="353.3"/>
	<rect x="354.3" y="351.5" class="st3" width="253.7" height="102.1"/>
	<rect x="341.6" y="100.3" class="st3" width="27.5" height="251.2"/>
	<rect x="369.1" y="267.8" class="st3" width="68.9" height="83.7"/>
	<rect x="369.1" y="184" class="st3" width="68.9" height="83.7"/>
	<rect x="369.1" y="100.3" class="st3" width="68.9" height="83.7"/>
	<rect x="437.9" y="267.7" class="st3" width="170.1" height="83.7"/>
	<rect x="437.9" y="184" class="st3" width="170.1" height="83.7"/>
	<rect x="437.9" y="100.3" class="st3" width="170.1" height="83.7"/>
	
		<rect x="270.7" y="267.8" transform="matrix(-1 -1.224647e-16 1.224647e-16 -1 612.3423 619.2591)" class="st3" width="70.9" height="83.7"/>
	
		<rect x="270.7" y="184" transform="matrix(-1 -1.224647e-16 1.224647e-16 -1 612.3423 451.7703)" class="st3" width="70.9" height="83.7"/>
	
		<rect x="270.7" y="100.3" transform="matrix(-1 -1.224647e-16 1.224647e-16 -1 612.3423 284.2814)" class="st3" width="70.9" height="83.7"/>
	
		<rect x="100.7" y="267.7" transform="matrix(-1 -1.224647e-16 1.224647e-16 -1 371.4123 619.1912)" class="st3" width="170.1" height="83.7"/>
	
		<rect x="100.7" y="184" transform="matrix(-1 -1.224647e-16 1.224647e-16 -1 371.4123 451.7703)" class="st3" width="170.1" height="83.7"/>
	
		<rect x="100.7" y="100.3" transform="matrix(-1 -1.224647e-16 1.224647e-16 -1 371.4123 284.2814)" class="st3" width="170.1" height="83.7"/>
	<text transform="matrix(1 0 0 1 106.059 39.274)" class="st2 st4 st5">OUR TEAM SIDE</text>
</g>
<g id="Calque_2">
</g>
</svg>
